<svg xmlns="http://www.w3.org/2000/svg">
    <symbol id="burger" viewBox="0 0 24 24" fill="none" stroke="currentColor" stroke-width="2" stroke-linecap="round" stroke-linejoin="bevel">
        <line x1="3" y1="12" x2="21" y2="12"/>
        <line x1="3" y1="6" x2="21" y2="6"/>
        <line x1="3" y1="18" x2="21" y2="18"/>
    </symbol>
    <symbol id="close" viewBox="0 0 72 72">
        <path fill="currentColor" d="M 19 15 C 17.977 15 16.951875 15.390875 16.171875 16.171875 C 14.609875 17.733875 14.609875 20.266125 16.171875 21.828125 L 30.34375 36 L 16.171875 50.171875 C 14.609875 51.733875 14.609875 54.266125 16.171875 55.828125 C 16.951875 56.608125 17.977 57 19 57 C 20.023 57 21.048125 56.609125 21.828125 55.828125 L 36 41.65625 L 50.171875 55.828125 C 51.731875 57.390125 54.267125 57.390125 55.828125 55.828125 C 57.391125 54.265125 57.391125 51.734875 55.828125 50.171875 L 41.65625 36 L 55.828125 21.828125 C 57.390125 20.266125 57.390125 17.733875 55.828125 16.171875 C 54.268125 14.610875 51.731875 14.609875 50.171875 16.171875 L 36 30.34375 L 21.828125 16.171875 C 21.048125 15.391875 20.023 15 19 15 z"/>
    </symbol>

    <symbol id="whatsapp" viewBox="0 0 30 30" fill="#40c351">
        <path d="M 15 3 C 8.373 3 3 8.373 3 15 C 3 17.251208 3.6323415 19.350068 4.7109375 21.150391 L 3.1074219 27 L 9.0820312 25.431641 C 10.829354 26.425062 12.84649 27 15 27 C 21.627 27 27 21.627 27 15 C 27 8.373 21.627 3 15 3 z M 10.892578 9.4023438 C 11.087578 9.4023438 11.287937 9.4011562 11.460938 9.4101562 C 11.674938 9.4151563 11.907859 9.4308281 12.130859 9.9238281 C 12.395859 10.509828 12.972875 11.979906 13.046875 12.128906 C 13.120875 12.277906 13.173313 12.453437 13.070312 12.648438 C 12.972312 12.848437 12.921344 12.969484 12.777344 13.146484 C 12.628344 13.318484 12.465078 13.532109 12.330078 13.662109 C 12.181078 13.811109 12.027219 13.974484 12.199219 14.271484 C 12.371219 14.568484 12.968563 15.542125 13.851562 16.328125 C 14.986562 17.342125 15.944188 17.653734 16.242188 17.802734 C 16.540187 17.951734 16.712766 17.928516 16.884766 17.728516 C 17.061766 17.533516 17.628125 16.864406 17.828125 16.566406 C 18.023125 16.268406 18.222188 16.319969 18.492188 16.417969 C 18.766188 16.515969 20.227391 17.235766 20.525391 17.384766 C 20.823391 17.533766 21.01875 17.607516 21.09375 17.728516 C 21.17075 17.853516 21.170828 18.448578 20.923828 19.142578 C 20.676828 19.835578 19.463922 20.505734 18.919922 20.552734 C 18.370922 20.603734 17.858562 20.7995 15.351562 19.8125 C 12.327563 18.6215 10.420484 15.524219 10.271484 15.324219 C 10.122484 15.129219 9.0605469 13.713906 9.0605469 12.253906 C 9.0605469 10.788906 9.8286563 10.071437 10.097656 9.7734375 C 10.371656 9.4754375 10.692578 9.4023438 10.892578 9.4023438 z"/>
    </symbol>

    <symbol id="telegram" viewBox="0 0 48 48">
        <path fill="#29b6f6" d="M24 4A20 20 0 1 0 24 44A20 20 0 1 0 24 4Z"/>
        <path fill="#fff" d="M33.95,15l-3.746,19.126c0,0-0.161,0.874-1.245,0.874c-0.576,0-0.873-0.274-0.873-0.274l-8.114-6.733 l-3.97-2.001l-5.095-1.355c0,0-0.907-0.262-0.907-1.012c0-0.625,0.933-0.923,0.933-0.923l21.316-8.468 c-0.001-0.001,0.651-0.235,1.126-0.234C33.667,14,34,14.125,34,14.5C34,14.75,33.95,15,33.95,15z"/>
        <path fill="#b0bec5" d="M23,30.505l-3.426,3.374c0,0-0.149,0.115-0.348,0.12c-0.069,0.002-0.143-0.009-0.219-0.043 l0.964-5.965L23,30.505z"/>
        <path fill="#cfd8dc" d="M29.897,18.196c-0.169-0.22-0.481-0.26-0.701-0.093L16,26c0,0,2.106,5.892,2.427,6.912 c0.322,1.021,0.58,1.045,0.58,1.045l0.964-5.965l9.832-9.096C30.023,18.729,30.064,18.416,29.897,18.196z"/>
    </symbol>
</svg>